<svg width="15" height="15" viewBox="0 0 15 15" version="1.1" xmlns="http://www.w3.org/2000/svg" xmlns:xlink="http://www.w3.org/1999/xlink">
<title>Icon</title>
<desc>Created using Figma</desc>
<g id="Canvas" transform="translate(-3920 -16748)">
<g id="Icon">
<use xlink:href="#path0_fill" transform="matrix(0.707107 -0.707107 0.707107 0.707107 3914.27 16755.6)" fill="#FFFFFF" style="mix-blend-mode:multiply"/>
</g>
</g>
<defs>
<path id="path0_fill" fill-rule="evenodd" d="M 18.8991 9.44702C 18.8992 8.86715 18.429 8.39689 17.8491 8.39707L 10.4963 8.39707L 10.4965 1.04996C 10.4966 0.470081 10.0266 7.27596e-12 9.4465 7.27596e-12C 8.86663 0.000172634 8.39707 0.469736 8.39689 1.04961L 8.39689 8.39689L 1.04961 8.39689C 0.469736 8.39707 0.000172633 8.86663 -7.27596e-12 9.4465C -7.27596e-12 10.0266 0.470081 10.4966 1.04996 10.4965L 8.39707 10.4963L 8.39707 17.8491C 8.39689 18.429 8.86697 18.8991 9.44702 18.8991C 10.0269 18.8989 10.4965 18.4293 10.4966 17.8494L 10.4966 10.4966L 17.8494 10.4966C 18.4295 10.4966 18.8991 10.0271 18.8991 9.44702Z"/>
</defs>
</svg>
