<svg width="50" height="34" viewBox="0 0 50 34" fill="none" xmlns="http://www.w3.org/2000/svg">
<path d="M3.95389 2.65941e-07H0V14.919H11.1556V12.967H3.95389V2.65941e-07Z" transform="translate(0.513184 9.87456)" fill="#70BF54"/>
<path d="M8.1902 2.65941e-07H6.7781L0 14.919H2.18876L3.67147 11.5727H9.4611L11.0144 14.919H15.1095L8.1902 2.65941e-07ZM4.37752 9.8298L6.42507 5.22862L8.61383 9.8298H4.37752Z" transform="translate(34.4038 9.87456)" fill="#70BF54"/>
<path d="M8.54323 8.92351L5.01297 -2.65941e-07H0V14.8493H2.32997V3.2766L6.8487 14.8493H8.26081L12.9207 3.2766V14.8493H16.804V-2.65941e-07H12.2853L8.54323 8.92351Z" transform="translate(14.9873 18.7981)" fill="#70BF54"/>
<path d="M3.88328 9.55094H6.8487C10.379 9.55094 12.9207 7.9475 12.9207 4.74061C12.9207 1.60344 10.3084 0 6.8487 0H-5.38675e-07V14.919H3.95389V9.55094H3.88328ZM3.88328 1.81259H5.29539C7.83717 1.81259 8.82565 2.71888 8.82565 4.74061C8.82565 6.83206 7.83717 7.66864 5.29539 7.66864H3.88328V1.81259Z" transform="translate(17.6702 0.393372)" fill="#70BF54"/>
</svg>
