<?xml version="1.0" encoding="UTF-8"?>
<svg width="48px" height="48px" viewBox="0 0 48 48" version="1.1" xmlns="http://www.w3.org/2000/svg" xmlns:xlink="http://www.w3.org/1999/xlink">
    <!-- Generator: Sketch 48.2 (47327) - http://www.bohemiancoding.com/sketch -->
    <title>Facebook</title>
    <desc>Created with Sketch.</desc>
    <defs></defs>
    <g id="Black" stroke="none" stroke-width="1" fill="none" fill-rule="evenodd" transform="translate(-111.000000, -136.000000)">
        <path d="M136.638355,184 L113.649232,184 C112.185673,184 111,182.813592 111,181.350603 L111,138.649211 C111,137.18585 112.185859,136 113.649232,136 L156.350955,136 C157.813955,136 159,137.18585 159,138.649211 L159,181.350603 C159,182.813778 157.813769,184 156.350955,184 L144.119305,184 L144.119305,165.411755 L150.358521,165.411755 L151.292755,158.167586 L144.119305,158.167586 L144.119305,153.542641 C144.119305,151.445287 144.701712,150.01601 147.70929,150.01601 L151.545311,150.014333 L151.545311,143.535091 C150.881886,143.446808 148.604784,143.24957 145.955552,143.24957 C140.424834,143.24957 136.638355,146.625526 136.638355,152.825209 L136.638355,158.167586 L130.383122,158.167586 L130.383122,165.411755 L136.638355,165.411755 L136.638355,184 L136.638355,184 Z" id="Facebook" fill="#ffffff"></path>
    </g>
</svg>