<?xml version="1.0" encoding="UTF-8"?>
<svg width="66px" height="42px" viewBox="0 0 66 42" version="1.1" xmlns="http://www.w3.org/2000/svg" xmlns:xlink="http://www.w3.org/1999/xlink">
    <!-- Generator: Sketch 48.2 (47327) - http://www.bohemiancoding.com/sketch -->
    <title>GooglePlus</title>
    <desc>Created with Sketch.</desc>
    <defs></defs>
    <g id="Black" stroke="none" stroke-width="1" fill="none" fill-rule="evenodd" transform="translate(-302.000000, -139.000000)">
        <path d="M360.735849,156.257426 L360.735849,148.980198 L355.54717,148.980198 L355.54717,156.257426 L348.075472,156.257426 L348.075472,161.455446 L355.54717,161.455446 L355.54717,168.940594 L360.735849,168.940594 L360.735849,161.455446 L368,161.455446 L368,156.257426 L360.735849,156.257426 L360.735849,156.257426 Z M322.962264,155.841584 L322.962264,164.158416 C322.962264,164.158416 331.015925,164.147604 334.29517,164.147604 C332.519396,169.539198 329.758189,172.475248 322.962264,172.475248 C316.084774,172.475248 310.716981,166.889871 310.716981,160 C310.716981,153.110129 316.084774,147.524752 322.962264,147.524752 C326.598491,147.524752 328.946887,148.805129 331.101019,150.589713 C332.825321,148.862307 332.681283,148.616129 337.068208,144.465822 C333.344189,141.070059 328.394604,139 322.962264,139 C311.385075,139 302,148.40197 302,160 C302,171.597822 311.385075,181 322.962264,181 C340.266925,181 344.496528,165.90495 343.09434,155.841584 L322.962264,155.841584 L322.962264,155.841584 Z" id="GooglePlus" fill="#ffffff"></path>
    </g>
</svg>