<svg xmlns="http://www.w3.org/2000/svg" width="21" height="17" viewBox="0 0 21 17">
    <g fill="none">
        <path fill="#fff" d="M9.532 7.988H8.72a.529.529 0 0 0-.37.15.509.509 0 0 0 0 .727c.098.096.231.15.37.15h.812a.529.529 0 0 0 .37-.15.509.509 0 0 0 0-.726.529.529 0 0 0-.37-.15zM13.094 7.988h-.812a.529.529 0 0 0-.37.15.509.509 0 0 0 0 .727c.098.096.23.15.37.15h.812a.529.529 0 0 0 .37-.15.509.509 0 0 0 0-.726.529.529 0 0 0-.37-.15zM9.532 4.492H8.72a.529.529 0 0 0-.37.15.509.509 0 0 0 0 .727c.098.096.231.15.37.15h.812a.529.529 0 0 0 .37-.15.509.509 0 0 0 0-.726.529.529 0 0 0-.37-.15zM13.094 4.492h-.812a.529.529 0 0 0-.37.15.509.509 0 0 0 0 .727c.098.096.23.15.37.15h.812a.529.529 0 0 0 .37-.15.509.509 0 0 0 0-.726.529.529 0 0 0-.37-.15zM9.532 11.477H8.72a.529.529 0 0 0-.37.15.509.509 0 0 0 0 .726c.098.097.231.15.37.15h.812a.529.529 0 0 0 .37-.15.509.509 0 0 0 0-.726.529.529 0 0 0-.37-.15zM13.094 11.477h-.812a.529.529 0 0 0-.37.15.509.509 0 0 0 0 .726c.098.097.23.15.37.15h.812a.529.529 0 0 0 .37-.15.509.509 0 0 0 0-.726.529.529 0 0 0-.37-.15z"/>
        <path fill="#fff" d="M21 16.486V4.596c0-.544-.22-1.067-.613-1.452a2.116 2.116 0 0 0-1.482-.602h-2.461v-.488c0-.544-.22-1.067-.614-1.452A2.116 2.116 0 0 0 14.35 0H7.462C6.907 0 6.374.216 5.98.602a2.035 2.035 0 0 0-.613 1.452V8.27H2.095c-.556 0-1.089.216-1.481.602A2.035 2.035 0 0 0 0 10.323v6.163c0 .137.055.267.153.364.099.096.232.15.37.15h19.953a.529.529 0 0 0 .37-.15.509.509 0 0 0 .154-.364zm-16.418-.513H1.047v-5.65c0-.272.11-.533.307-.726.197-.193.463-.3.74-.3h3.352a1.065 1.065 0 0 1 .741.3 1.026 1.026 0 0 1 .307.726v5.65H4.582zm6.154 0H7.54v-5.65a2.076 2.076 0 0 0-.31-1.061 2.13 2.13 0 0 0-.816-.762V2.054c0-.272.11-.533.307-.726.196-.193.463-.3.74-.3h6.887c.278 0 .544.107.74.3.197.193.307.454.307.726v13.919h-4.66zm9.217 0h-3.51V3.569h2.462c.278 0 .544.109.74.301.197.193.308.454.308.727v11.376z"/>
    </g>
</svg>
