<?xml version="1.0" encoding="UTF-8"?>
<svg width="48px" height="48px" viewBox="0 0 48 48" version="1.1" xmlns="http://www.w3.org/2000/svg" xmlns:xlink="http://www.w3.org/1999/xlink">
    <!-- Generator: Sketch 48.2 (47327) - http://www.bohemiancoding.com/sketch -->
    <title>Instagram</title>
    <desc>Created with Sketch.</desc>
    <defs></defs>
    <g id="Black" stroke="none" stroke-width="1" fill="none" fill-rule="evenodd" transform="translate(-411.000000, -136.000000)">
        <path d="M435.000048,136 C441.518009,136 442.335314,136.027628 444.895169,136.144427 C447.449689,136.260939 449.194335,136.666687 450.720912,137.260017 C452.299124,137.873258 453.637546,138.693897 454.971872,140.028128 C456.306103,141.362454 457.126742,142.700876 457.740079,144.279088 C458.333313,145.805665 458.739061,147.550311 458.855573,150.104831 C458.972372,152.664686 459,153.481991 459,160.000048 C459,166.518009 458.972372,167.335314 458.855573,169.895169 C458.739061,172.449689 458.333313,174.194335 457.740079,175.720912 C457.126742,177.299124 456.306103,178.637546 454.971872,179.971872 C453.637546,181.306103 452.299124,182.126742 450.720912,182.740079 C449.194335,183.333313 447.449689,183.739061 444.895169,183.855573 C442.335314,183.972372 441.518009,184 435.000048,184 C428.481991,184 427.664686,183.972372 425.104831,183.855573 C422.550311,183.739061 420.805665,183.333313 419.279088,182.740079 C417.700876,182.126742 416.362454,181.306103 415.028128,179.971872 C413.693897,178.637546 412.873258,177.299124 412.260017,175.720912 C411.666687,174.194335 411.260939,172.449689 411.144427,169.895169 C411.027628,167.335314 411,166.518009 411,160.000048 C411,153.481991 411.027628,152.664686 411.144427,150.104831 C411.260939,147.550311 411.666687,145.805665 412.260017,144.279088 C412.873258,142.700876 413.693897,141.362454 415.028128,140.028128 C416.362454,138.693897 417.700876,137.873258 419.279088,137.260017 C420.805665,136.666687 422.550311,136.260939 425.104831,136.144427 C427.664686,136.027628 428.481991,136 435.000048,136 Z M435.000048,140.324317 C428.59174,140.324317 427.832644,140.348801 425.30194,140.464266 C422.961964,140.570966 421.691182,140.961946 420.845487,141.290621 C419.725229,141.725997 418.925738,142.246066 418.08595,143.08595 C417.246066,143.925738 416.725997,144.725229 416.290621,145.845487 C415.961946,146.691182 415.570966,147.961964 415.464266,150.30194 C415.348801,152.832644 415.324317,153.59174 415.324317,160.000048 C415.324317,166.40826 415.348801,167.167356 415.464266,169.69806 C415.570966,172.038036 415.961946,173.308818 416.290621,174.154513 C416.725997,175.274771 417.246161,176.074262 418.08595,176.91405 C418.925738,177.753934 419.725229,178.274003 420.845487,178.709379 C421.691182,179.038054 422.961964,179.429034 425.30194,179.535734 C427.832358,179.651199 428.591264,179.675683 435.000048,179.675683 C441.408736,179.675683 442.167737,179.651199 444.69806,179.535734 C447.038036,179.429034 448.308818,179.038054 449.154513,178.709379 C450.274771,178.274003 451.074262,177.753934 451.91405,176.91405 C452.753934,176.074262 453.274003,175.274771 453.709379,174.154513 C454.038054,173.308818 454.429034,172.038036 454.535734,169.69806 C454.651199,167.167356 454.675683,166.40826 454.675683,160.000048 C454.675683,153.59174 454.651199,152.832644 454.535734,150.30194 C454.429034,147.961964 454.038054,146.691182 453.709379,145.845487 C453.274003,144.725229 452.753934,143.925738 451.91405,143.08595 C451.074262,142.246066 450.274771,141.725997 449.154513,141.290621 C448.308818,140.961946 447.038036,140.570966 444.69806,140.464266 C442.167356,140.348801 441.40826,140.324317 435.000048,140.324317 Z M435.000048,147.675683 C441.806576,147.675683 447.324317,153.193424 447.324317,160.000048 C447.324317,166.806576 441.806576,172.324317 435.000048,172.324317 C428.193424,172.324317 422.675683,166.806576 422.675683,160.000048 C422.675683,153.193424 428.193424,147.675683 435.000048,147.675683 Z M435.000048,168 C439.418299,168 443,164.418299 443,160.000048 C443,155.581701 439.418299,152 435.000048,152 C430.581701,152 427,155.581701 427,160.000048 C427,164.418299 430.581701,168 435.000048,168 Z M450.691284,147.188768 C450.691284,148.779365 449.401829,150.068724 447.811232,150.068724 C446.22073,150.068724 444.931276,148.779365 444.931276,147.188768 C444.931276,145.598171 446.22073,144.308716 447.811232,144.308716 C449.401829,144.308716 450.691284,145.598171 450.691284,147.188768 Z" id="Instagram" fill="#ffffff"></path>
    </g>
</svg>