<?xml version="1.0" encoding="UTF-8"?>
<svg width="44px" height="40px" viewBox="0 0 44 40" version="1.1" xmlns="http://www.w3.org/2000/svg" xmlns:xlink="http://www.w3.org/1999/xlink">
    <!-- Generator: Sketch 48.2 (47327) - http://www.bohemiancoding.com/sketch -->
    <title>LinkedIn</title>
    <desc>Created with Sketch.</desc>
    <defs></defs>
    <g id="Black" stroke="none" stroke-width="1" fill="none" fill-rule="evenodd" transform="translate(-502.000000, -140.000000)">
        <path d="M546,180 L536.2754,180 L536.2754,165.9384 C536.2754,162.257796 534.754233,159.74515 531.409219,159.74515 C528.850659,159.74515 527.427799,161.440738 526.765522,163.074854 C526.517168,163.661395 526.555974,164.478453 526.555974,165.295511 L526.555974,180 L516.921919,180 C516.921919,180 517.046096,155.091247 516.921919,152.827047 L526.555974,152.827047 L526.555974,157.091631 C527.125118,155.226996 530.203669,152.565794 535.116416,152.565794 C541.21143,152.565794 546,156.474355 546,164.890824 L546,180 L546,180 Z M507.17921,149.428187 L507.117121,149.428187 C504.0127,149.428187 502,147.350964 502,144.717936 C502,142.033681 504.072201,140 507.238711,140 C510.402634,140 512.348071,142.028559 512.41016,144.710252 C512.41016,147.34328 510.402634,149.428187 507.17921,149.428187 L507.17921,149.428187 L507.17921,149.428187 Z M503.109831,152.827047 L511.685795,152.827047 L511.685795,180 L503.109831,180 L503.109831,152.827047 L503.109831,152.827047 Z" id="LinkedIn" fill="#ffffff"></path>
    </g>
</svg>