<?xml version="1.0" encoding="UTF-8"?>
<svg width="48px" height="40px" viewBox="0 0 48 40" version="1.1" xmlns="http://www.w3.org/2000/svg" xmlns:xlink="http://www.w3.org/1999/xlink">
    <!-- Generator: Sketch 48.2 (47327) - http://www.bohemiancoding.com/sketch -->
    <title>Twitter</title>
    <desc>Created with Sketch.</desc>
    <defs></defs>
    <g id="Black" stroke="none" stroke-width="1" fill="none" fill-rule="evenodd" transform="translate(-211.000000, -140.000000)">
        <path d="M259,144.735283 C257.236309,145.538462 255.337383,146.081618 253.345483,146.324305 C255.379644,145.076201 256.940482,143.097147 257.675823,140.739617 C255.771263,141.895269 253.666667,142.736006 251.418384,143.18671 C249.626519,141.224991 247.065504,140 244.231203,140 C238.796443,140 234.387216,144.521488 234.387216,150.097508 C234.387216,150.88913 234.471738,151.657638 234.640782,152.397255 C226.456242,151.975442 219.201444,147.959552 214.341433,141.843265 C213.493397,143.339834 213.008804,145.076201 213.008804,146.925244 C213.008804,150.426869 214.747139,153.518238 217.389857,155.329722 C215.778306,155.280607 214.256911,154.821235 212.9271,154.070061 L212.9271,154.194294 C212.9271,159.08848 216.322064,163.17082 220.8299,164.095341 C220.004402,164.33225 219.133826,164.450704 218.235077,164.450704 C217.601162,164.450704 216.981335,164.390033 216.381229,164.271578 C217.634971,168.28169 221.269414,171.2026 225.580032,171.280607 C222.210424,173.99061 217.961789,175.605634 213.349709,175.605634 C212.555203,175.605634 211.769149,175.559408 211,175.466956 C215.358514,178.327194 220.53689,180 226.095615,180 C244.211481,180 254.114633,164.615385 254.114633,151.270495 C254.114633,150.831347 254.106181,150.392199 254.089276,149.961719 C256.013559,148.537378 257.684275,146.760563 259,144.735283" id="Twitter" fill="#ffffff"></path>
    </g>
</svg>