<?xml version="1.0" encoding="UTF-8"?>
<svg width="48px" height="34px" viewBox="0 0 48 34" version="1.1" xmlns="http://www.w3.org/2000/svg" xmlns:xlink="http://www.w3.org/1999/xlink">
    <!-- Generator: Sketch 48.2 (47327) - http://www.bohemiancoding.com/sketch -->
    <title>Youtube</title>
    <desc>Created with Sketch.</desc>
    <defs></defs>
    <g id="Black" stroke="none" stroke-width="1" fill="none" fill-rule="evenodd" transform="translate(-589.000000, -143.000000)">
        <path d="M608.044,166.269916 L608.0425,152.687742 L621.0115,159.502244 L608.044,166.269916 Z M636.52,150.334163 C636.52,150.334163 636.0505,147.003199 634.612,145.536366 C632.7865,143.610299 630.7405,143.601235 629.803,143.489448 C623.086,143 613.0105,143 613.0105,143 L612.9895,143 C612.9895,143 602.914,143 596.197,143.489448 C595.258,143.601235 593.2135,143.610299 591.3865,145.536366 C589.948,147.003199 589.48,150.334163 589.48,150.334163 C589.48,150.334163 589,154.246723 589,158.157773 L589,161.82561 C589,165.73817 589.48,169.64922 589.48,169.64922 C589.48,169.64922 589.948,172.980184 591.3865,174.447016 C593.2135,176.373084 595.612,176.312658 596.68,176.513574 C600.52,176.885191 613,177 613,177 C613,177 623.086,176.984894 629.803,176.495446 C630.7405,176.382148 632.7865,176.373084 634.612,174.447016 C636.0505,172.980184 636.52,169.64922 636.52,169.64922 C636.52,169.64922 637,165.73817 637,161.82561 L637,158.157773 C637,154.246723 636.52,150.334163 636.52,150.334163 L636.52,150.334163 Z" id="Youtube" fill="#ffffff"></path>
    </g>
</svg>