<?xml version="1.0" standalone="no"?>
<!DOCTYPE svg PUBLIC "-//W3C//DTD SVG 20010904//EN"
 "http://www.w3.org/TR/2001/REC-SVG-20010904/DTD/svg10.dtd">
<svg version="1.0" xmlns="http://www.w3.org/2000/svg"
 width="1355.000000pt" height="1355.000000pt" viewBox="0 0 1355.000000 1355.000000"
 preserveAspectRatio="xMidYMid meet">
<metadata>
Created by potrace 1.11, written by Peter Selinger 2001-2013
</metadata>
<g transform="translate(0.000000,1355.000000) scale(0.100000,-0.100000)"
fill="#000000" stroke="none">
<path d="M4720 9354 c0 -1146 3 -2084 8 -2085 41 -4 1066 -2 1074 2 7 5 10
254 10 748 l0 741 132 0 c327 1 924 9 951 13 17 3 57 8 90 13 33 4 62 8 65 9
3 0 28 4 55 9 28 4 95 19 150 33 466 116 808 386 957 753 43 107 56 157 84
320 11 63 9 327 -2 398 -21 124 -23 133 -50 216 -115 354 -376 614 -771 770
-94 37 -322 99 -403 109 -68 9 -121 16 -160 23 -19 4 -520 8 -1112 9 l-1078 3
0 -2084z m1660 1562 c95 -6 144 -12 190 -22 14 -3 36 -8 50 -10 53 -10 158
-48 225 -83 127 -65 244 -206 286 -344 54 -174 61 -476 16 -648 -69 -266 -221
-413 -502 -484 -49 -13 -115 -26 -145 -29 -30 -4 -67 -9 -82 -12 -20 -4 -509
-8 -590 -5 -15 1 -16 63 -16 820 l1 820 31 3 c50 5 432 1 536 -6z"/>
<path d="M40 8780 l-35 -5 0 -2080 0 -2080 1535 0 1535 0 3 267 2 268 -991 2
-992 3 0 1813 c0 996 -3 1812 -6 1813 -39 3 -1025 3 -1051 -1z"/>
<path d="M11248 8782 c-14 -3 -40 -52 -88 -167 -10 -22 -34 -75 -54 -118 -20
-42 -36 -79 -36 -81 0 -2 -20 -47 -45 -99 -25 -53 -45 -98 -45 -101 0 -3 -20
-48 -45 -100 -25 -53 -45 -98 -45 -100 0 -2 -20 -47 -45 -99 -25 -53 -45 -98
-45 -101 0 -2 -20 -46 -43 -98 -24 -51 -61 -131 -82 -178 -30 -66 -185 -411
-290 -645 -8 -16 -46 -102 -85 -190 -40 -88 -80 -178 -90 -200 -10 -22 -29
-65 -43 -95 -13 -30 -33 -75 -45 -100 -53 -116 -132 -291 -132 -295 0 -3 -31
-72 -90 -200 -41 -90 -169 -372 -183 -405 -8 -19 -28 -64 -45 -100 -16 -36
-46 -103 -67 -150 -21 -47 -59 -132 -86 -189 -27 -57 -49 -107 -49 -110 0 -4
-14 -36 -31 -72 -30 -61 -79 -169 -79 -174 0 -1 137 -2 304 -2 l304 -1 12 27
c7 14 61 139 121 276 60 138 114 259 119 270 6 11 44 97 85 190 l74 170 797 1
797 1 50 -106 c52 -111 92 -199 134 -291 14 -30 50 -106 79 -169 30 -62 54
-115 54 -116 0 -1 27 -59 59 -127 l59 -125 566 0 565 0 -13 31 c-30 69 -96
216 -133 296 -22 47 -77 166 -123 265 -45 99 -104 227 -131 283 -27 57 -49
106 -49 108 0 2 -25 56 -55 119 -30 64 -55 118 -55 120 0 2 -18 41 -39 87 -48
102 -256 552 -361 783 -43 94 -93 204 -113 245 -19 41 -59 129 -90 195 -30 66
-66 145 -80 175 -14 30 -36 80 -50 110 -14 30 -46 99 -71 153 -25 55 -46 100
-46 102 0 1 -22 49 -49 106 -27 57 -72 156 -101 219 -29 63 -74 162 -101 219
-27 57 -49 105 -49 106 0 2 -18 42 -40 89 -77 166 -117 251 -140 304 -13 28
-28 52 -34 53 -36 2 -355 3 -368 1z m-4 -1679 c46 -98 104 -222 129 -277 26
-54 47 -99 47 -101 0 -1 26 -58 59 -126 32 -68 70 -149 83 -179 35 -75 77
-166 132 -284 25 -54 46 -101 46 -105 0 -3 -259 -6 -575 -6 -316 0 -575 0
-575 1 0 2 84 192 110 250 20 43 176 397 336 761 103 236 113 257 121 250 3
-3 42 -86 87 -184z"/>
<path d="M4003 4214 l0 -2084 26 -1 c147 -4 603 -1 608 4 3 4 6 732 6 1617 0
1328 3 1605 13 1583 7 -16 37 -91 67 -168 68 -176 190 -491 273 -703 35 -89
64 -165 64 -168 0 -3 6 -20 14 -37 8 -18 45 -111 81 -207 37 -96 71 -184 76
-195 9 -19 59 -148 203 -525 37 -96 74 -188 81 -205 7 -16 29 -73 48 -125 34
-92 58 -153 77 -195 4 -11 26 -67 48 -125 23 -58 62 -159 87 -225 26 -66 58
-149 72 -185 14 -36 32 -83 40 -105 l16 -40 181 2 c100 1 186 2 191 2 13 1 -1
-31 240 576 113 286 210 529 215 540 5 11 32 79 60 150 28 72 54 139 59 150 5
11 21 52 36 90 15 39 33 84 40 100 7 17 77 192 155 390 251 636 372 939 385
970 7 17 32 80 55 140 24 61 45 113 49 117 3 4 6 -720 6 -1607 l0 -1615 30 -1
c35 -1 1028 -1 1035 0 4 1 5 4078 1 4153 -1 15 -50 16 -625 16 l-624 0 -22
-51 c-26 -63 -93 -226 -564 -1377 -448 -1093 -438 -1070 -448 -1070 -4 0 -8 5
-8 10 0 8 -821 2129 -849 2195 -5 11 -24 58 -41 105 -18 47 -38 99 -45 115 -7
17 -16 40 -19 51 l-7 22 -693 0 -693 0 0 -2084z"/>
</g>
</svg>
