<svg width="75" height="52" viewBox="0 0 75 52" fill="none" xmlns="http://www.w3.org/2000/svg">
<path d="M1.4244e-10 2.43098e-07V23.1009H17.0342V20.1313H6.04129V2.43098e-07H1.4244e-10Z" transform="translate(0 14.7207)" fill="white"/>
<path d="M6.7869 15.2817H13.2233L9.935 8.18251L6.7869 15.2817ZM14.4787 17.92H5.64619L3.36477 23.1009H-9.72393e-07L10.4002 2.43098e-07H12.5223L23.1519 23.1009H16.8812L14.4787 17.92Z" transform="translate(51.8477 14.7207)" fill="white"/>
<path d="M18.7803 -5.83436e-07L13.0704 13.9243L7.65358 -5.83436e-07H-1.06963e-06V23.1009H3.53046V5.07902L10.5277 23.1009H12.637L19.7999 5.07902V23.1009H25.7137V-5.83436e-07H18.7803Z" transform="translate(22.1582 28.4922)" fill="white"/>
<path d="M8.22075 11.9806C12.1145 11.9806 13.6311 10.5914 13.6311 7.3923C13.6311 4.19322 12.1081 2.83584 8.22075 2.83584H6.04129V11.9806H8.22075ZM6.04129 14.8165V23.1009H0V0H10.5277C15.9317 0 19.87 2.51083 19.87 7.3923C19.87 12.2738 15.9317 14.8165 10.5277 14.8165H6.04129Z" transform="translate(26.1348)" fill="white"/>
</svg>
